<svg id="visual" viewBox="0 0 540 960" width="540" height="960" xmlns="http://www.w3.org/2000/svg" xmlns:xlink="http://www.w3.org/1999/xlink" version="1.1"><rect width="540" height="960" fill="#001829"></rect><g><g transform="translate(224 45)"><path d="M0 -144L124.7 -72L124.7 72L0 144L-124.7 72L-124.7 -72Z" fill="#297EA6"></path></g><g transform="translate(138 844)"><path d="M0 -131L113.4 -65.5L113.4 65.5L0 131L-113.4 65.5L-113.4 -65.5Z" fill="#297EA6"></path></g><g transform="translate(534 156)"><path d="M0 -140L121.2 -70L121.2 70L0 140L-121.2 70L-121.2 -70Z" fill="#297EA6"></path></g><g transform="translate(383 620)"><path d="M0 -115L99.6 -57.5L99.6 57.5L0 115L-99.6 57.5L-99.6 -57.5Z" fill="#297EA6"></path></g><g transform="translate(438 923)"><path d="M0 -134L116 -67L116 67L0 134L-116 67L-116 -67Z" fill="#297EA6"></path></g></g></svg>