<svg id="visual" viewBox="0 0 900 600" width="900" height="600" xmlns="http://www.w3.org/2000/svg" xmlns:xlink="http://www.w3.org/1999/xlink" version="1.1"><rect width="900" height="600" fill="#001829"></rect><g><g transform="translate(636 89)"><path d="M0 -114.9L99.5 -57.5L99.5 57.5L0 114.9L-99.5 57.5L-99.5 -57.5Z" fill="#297EA6"></path></g><g transform="translate(291 229)"><path d="M0 -78L67.5 -39L67.5 39L0 78L-67.5 39L-67.5 -39Z" fill="#297EA6"></path></g><g transform="translate(34 350)"><path d="M0 -81L70.1 -40.5L70.1 40.5L0 81L-70.1 40.5L-70.1 -40.5Z" fill="#297EA6"></path></g><g transform="translate(730 502)"><path d="M0 -64L55.4 -32L55.4 32L0 64L-55.4 32L-55.4 -32Z" fill="#297EA6"></path></g><g transform="translate(495 550)"><path d="M0 -105L90.9 -52.5L90.9 52.5L0 105L-90.9 52.5L-90.9 -52.5Z" fill="#297EA6"></path></g><g transform="translate(1 119)"><path d="M0 -75L65 -37.5L65 37.5L0 75L-65 37.5L-65 -37.5Z" fill="#297EA6"></path></g></g></svg>