<svg width="669" height="514" viewBox="0 0 669 514" fill="none" xmlns="http://www.w3.org/2000/svg">
<path d="M147.112 3.29861C148.601 2.48885 150.399 2.48885 151.888 3.29861L280.689 73.33C282.299 74.2052 283.301 75.8906 283.301 77.7227V217.277C283.301 219.109 282.299 220.795 280.689 221.67L151.888 291.701C150.399 292.511 148.601 292.511 147.112 291.701L18.3107 221.67C16.7011 220.795 15.6991 219.109 15.6991 217.277V77.7227C15.6991 75.8906 16.7011 74.2052 18.3107 73.33L147.112 3.29861Z" stroke="#64FFDA" stroke-width="5"/>
<path d="M157.734 158.086H112.148V139.688H157.734C166.562 139.688 173.711 138.281 179.18 135.469C184.648 132.656 188.633 128.75 191.133 123.75C193.711 118.75 195 113.047 195 106.641C195 100.781 193.711 95.2734 191.133 90.1172C188.633 84.9609 184.648 80.8203 179.18 77.6953C173.711 74.4922 166.562 72.8906 157.734 72.8906H117.422V225H94.8047V54.375H157.734C170.625 54.375 181.523 56.6016 190.43 61.0547C199.336 65.5078 206.094 71.6797 210.703 79.5703C215.312 87.3828 217.617 96.3281 217.617 106.406C217.617 117.344 215.312 126.68 210.703 134.414C206.094 142.148 199.336 148.047 190.43 152.109C181.523 156.094 170.625 158.086 157.734 158.086Z" fill="#64FFDA"/>
</svg>
